<mxfile host="app.diagrams.net" agent="Mozilla/5.0 (Windows NT 10.0; Win64; x64; rv:130.0) Gecko/20100101 Firefox/130.0" version="24.7.12">
  <diagram name="Page-1" id="vtOCUY2C6O2UGutxSUfd">
    <mxGraphModel dx="1780" dy="1711" grid="1" gridSize="10" guides="1" tooltips="1" connect="1" arrows="1" fold="1" page="1" pageScale="1" pageWidth="850" pageHeight="1100" math="0" shadow="0">
      <root>
        <mxCell id="0" />
        <mxCell id="1" parent="0" />
        <mxCell id="P1rr0KQyYY5fjy0DUGKN-1" value="VPC" style="sketch=0;outlineConnect=0;gradientColor=none;html=1;whiteSpace=wrap;fontSize=12;fontStyle=0;shape=mxgraph.aws4.group;grIcon=mxgraph.aws4.group_vpc;strokeColor=#879196;fillColor=none;verticalAlign=top;align=left;spacingLeft=30;fontColor=#879196;dashed=0;" vertex="1" parent="1">
          <mxGeometry x="130" y="160" width="615" height="470" as="geometry" />
        </mxCell>
        <mxCell id="P1rr0KQyYY5fjy0DUGKN-4" value="" style="rounded=1;arcSize=10;dashed=0;fillColor=none;gradientColor=none;strokeWidth=2;" vertex="1" parent="1">
          <mxGeometry x="175" y="422.5" width="190" height="180" as="geometry" />
        </mxCell>
        <mxCell id="P1rr0KQyYY5fjy0DUGKN-5" value="" style="dashed=0;html=1;shape=mxgraph.aws3.permissions;fillColor=#D9A741;gradientColor=none;dashed=0;" vertex="1" parent="1">
          <mxGeometry x="195" y="430" width="20" height="25" as="geometry" />
        </mxCell>
        <mxCell id="P1rr0KQyYY5fjy0DUGKN-6" value="Subnet" style="sketch=0;outlineConnect=0;gradientColor=none;html=1;whiteSpace=wrap;fontSize=12;fontStyle=0;shape=mxgraph.aws4.group;grIcon=mxgraph.aws4.group_subnet;strokeColor=#879196;fillColor=none;verticalAlign=top;align=left;spacingLeft=30;fontColor=#879196;dashed=0;" vertex="1" parent="1">
          <mxGeometry x="175" y="227.5" width="210" height="170" as="geometry" />
        </mxCell>
        <mxCell id="P1rr0KQyYY5fjy0DUGKN-8" value="" style="outlineConnect=0;dashed=0;verticalLabelPosition=bottom;verticalAlign=top;align=center;html=1;shape=mxgraph.aws3.ec2;fillColor=#F58534;gradientColor=none;" vertex="1" parent="1">
          <mxGeometry x="225" y="510" width="50" height="50" as="geometry" />
        </mxCell>
        <mxCell id="P1rr0KQyYY5fjy0DUGKN-9" value="" style="outlineConnect=0;dashed=0;verticalLabelPosition=bottom;verticalAlign=top;align=center;html=1;shape=mxgraph.aws3.ec2;fillColor=#F58534;gradientColor=none;" vertex="1" parent="1">
          <mxGeometry x="265" y="510" width="50" height="50" as="geometry" />
        </mxCell>
        <mxCell id="P1rr0KQyYY5fjy0DUGKN-13" value="NAT gateway" style="sketch=0;outlineConnect=0;fontColor=#232F3E;gradientColor=none;strokeColor=#232F3E;fillColor=#ffffff;dashed=0;verticalLabelPosition=bottom;verticalAlign=top;align=center;html=1;fontSize=12;fontStyle=0;aspect=fixed;shape=mxgraph.aws4.resourceIcon;resIcon=mxgraph.aws4.nat_gateway;" vertex="1" parent="1">
          <mxGeometry x="275" y="250" width="50" height="50" as="geometry" />
        </mxCell>
        <mxCell id="P1rr0KQyYY5fjy0DUGKN-51" value="" style="edgeStyle=orthogonalEdgeStyle;rounded=0;orthogonalLoop=1;jettySize=auto;html=1;" edge="1" parent="1" source="P1rr0KQyYY5fjy0DUGKN-14" target="P1rr0KQyYY5fjy0DUGKN-32">
          <mxGeometry relative="1" as="geometry">
            <Array as="points">
              <mxPoint x="430" y="470" />
              <mxPoint x="430" y="470" />
            </Array>
          </mxGeometry>
        </mxCell>
        <mxCell id="P1rr0KQyYY5fjy0DUGKN-14" value="" style="outlineConnect=0;dashed=0;verticalLabelPosition=bottom;verticalAlign=top;align=center;html=1;shape=mxgraph.aws3.application_load_balancer;fillColor=#F58534;gradientColor=none;" vertex="1" parent="1">
          <mxGeometry x="405.5" y="390" width="49" height="50" as="geometry" />
        </mxCell>
        <mxCell id="P1rr0KQyYY5fjy0DUGKN-16" value="Availability zone A" style="sketch=0;outlineConnect=0;gradientColor=none;html=1;whiteSpace=wrap;fontSize=12;fontStyle=0;shape=mxgraph.aws4.group;grIcon=mxgraph.aws4.group_availability_zone;strokeColor=#545B64;fillColor=none;verticalAlign=top;align=left;spacingLeft=30;fontColor=#545B64;dashed=1;" vertex="1" parent="1">
          <mxGeometry x="155" y="190" width="250" height="430" as="geometry" />
        </mxCell>
        <mxCell id="P1rr0KQyYY5fjy0DUGKN-22" value="Availability zone B" style="sketch=0;outlineConnect=0;gradientColor=none;html=1;whiteSpace=wrap;fontSize=12;fontStyle=0;shape=mxgraph.aws4.group;grIcon=mxgraph.aws4.group_availability_zone;strokeColor=#545B64;fillColor=none;verticalAlign=top;align=left;spacingLeft=30;fontColor=#545B64;dashed=1;" vertex="1" parent="1">
          <mxGeometry x="445" y="190" width="250" height="430" as="geometry" />
        </mxCell>
        <mxCell id="P1rr0KQyYY5fjy0DUGKN-24" value="Subnet" style="sketch=0;outlineConnect=0;gradientColor=none;html=1;whiteSpace=wrap;fontSize=12;fontStyle=0;shape=mxgraph.aws4.group;grIcon=mxgraph.aws4.group_subnet;strokeColor=#879196;fillColor=none;verticalAlign=top;align=left;spacingLeft=30;fontColor=#879196;dashed=0;" vertex="1" parent="1">
          <mxGeometry x="465" y="227.5" width="210" height="172.5" as="geometry" />
        </mxCell>
        <mxCell id="P1rr0KQyYY5fjy0DUGKN-25" value="" style="rounded=1;arcSize=10;dashed=0;fillColor=none;gradientColor=none;strokeWidth=2;" vertex="1" parent="1">
          <mxGeometry x="470" y="412.5" width="200" height="200" as="geometry" />
        </mxCell>
        <mxCell id="P1rr0KQyYY5fjy0DUGKN-26" value="" style="dashed=0;html=1;shape=mxgraph.aws3.permissions;fillColor=#D9A741;gradientColor=none;dashed=0;" vertex="1" parent="1">
          <mxGeometry x="480" y="422.5" width="20" height="27.5" as="geometry" />
        </mxCell>
        <mxCell id="P1rr0KQyYY5fjy0DUGKN-29" value="" style="outlineConnect=0;dashed=0;verticalLabelPosition=bottom;verticalAlign=top;align=center;html=1;shape=mxgraph.aws3.ec2;fillColor=#F58534;gradientColor=none;" vertex="1" parent="1">
          <mxGeometry x="505" y="499" width="50" height="61" as="geometry" />
        </mxCell>
        <mxCell id="P1rr0KQyYY5fjy0DUGKN-30" value="" style="outlineConnect=0;dashed=0;verticalLabelPosition=bottom;verticalAlign=top;align=center;html=1;shape=mxgraph.aws3.ec2;fillColor=#F58534;gradientColor=none;" vertex="1" parent="1">
          <mxGeometry x="545" y="499" width="50" height="61" as="geometry" />
        </mxCell>
        <mxCell id="P1rr0KQyYY5fjy0DUGKN-31" value="Auto Scaling Group" style="sketch=0;outlineConnect=0;gradientColor=none;html=1;whiteSpace=wrap;fontSize=12;fontStyle=0;shape=mxgraph.aws4.groupCenter;grIcon=mxgraph.aws4.group_auto_scaling_group;grStroke=0;strokeColor=#879196;fillColor=#ECEFEF;verticalAlign=top;align=center;fontColor=#879196;dashed=0;spacingTop=25;" vertex="1" parent="1">
          <mxGeometry x="405" y="510" width="50" height="20" as="geometry" />
        </mxCell>
        <mxCell id="P1rr0KQyYY5fjy0DUGKN-32" value="" style="rounded=1;arcSize=10;dashed=1;fillColor=none;gradientColor=none;dashPattern=8 3 1 3;strokeWidth=2;" vertex="1" parent="1">
          <mxGeometry x="205" y="490" width="410" height="98.5" as="geometry" />
        </mxCell>
        <mxCell id="P1rr0KQyYY5fjy0DUGKN-34" value="NAT gateway" style="sketch=0;outlineConnect=0;fontColor=#232F3E;gradientColor=none;strokeColor=#232F3E;fillColor=#ffffff;dashed=0;verticalLabelPosition=bottom;verticalAlign=top;align=center;html=1;fontSize=12;fontStyle=0;aspect=fixed;shape=mxgraph.aws4.resourceIcon;resIcon=mxgraph.aws4.nat_gateway;" vertex="1" parent="1">
          <mxGeometry x="555" y="250" width="40" height="40" as="geometry" />
        </mxCell>
        <mxCell id="P1rr0KQyYY5fjy0DUGKN-36" value="Internet&#xa;gateway" style="sketch=0;outlineConnect=0;fontColor=#232F3E;gradientColor=none;strokeColor=#232F3E;fillColor=#ffffff;dashed=0;verticalLabelPosition=bottom;verticalAlign=top;align=center;html=1;fontSize=12;fontStyle=0;aspect=fixed;shape=mxgraph.aws4.resourceIcon;resIcon=mxgraph.aws4.internet_gateway;" vertex="1" parent="1">
          <mxGeometry x="400" y="120" width="60" height="60" as="geometry" />
        </mxCell>
        <object label="" id="P1rr0KQyYY5fjy0DUGKN-37">
          <mxCell style="outlineConnect=0;dashed=0;verticalLabelPosition=bottom;verticalAlign=top;align=center;html=1;shape=mxgraph.aws3.ec2;fillColor=#F58534;gradientColor=none;" vertex="1" parent="1">
            <mxGeometry x="205" y="310" width="40" height="50" as="geometry" />
          </mxCell>
        </object>
        <mxCell id="P1rr0KQyYY5fjy0DUGKN-38" value="" style="outlineConnect=0;dashed=0;verticalLabelPosition=bottom;verticalAlign=top;align=center;html=1;shape=mxgraph.aws3.ec2;fillColor=#F58534;gradientColor=none;" vertex="1" parent="1">
          <mxGeometry x="610" y="320" width="40" height="50" as="geometry" />
        </mxCell>
        <mxCell id="P1rr0KQyYY5fjy0DUGKN-80" style="edgeStyle=orthogonalEdgeStyle;rounded=0;orthogonalLoop=1;jettySize=auto;html=1;exitX=0;exitY=0.5;exitDx=0;exitDy=0;" edge="1" parent="1" source="P1rr0KQyYY5fjy0DUGKN-39" target="P1rr0KQyYY5fjy0DUGKN-73">
          <mxGeometry relative="1" as="geometry" />
        </mxCell>
        <mxCell id="P1rr0KQyYY5fjy0DUGKN-39" value="Bastion server" style="text;strokeColor=none;align=center;fillColor=none;html=1;verticalAlign=middle;whiteSpace=wrap;rounded=0;" vertex="1" parent="1">
          <mxGeometry x="180" y="360" width="95" height="30" as="geometry" />
        </mxCell>
        <mxCell id="P1rr0KQyYY5fjy0DUGKN-40" value="Bastion server" style="text;strokeColor=none;align=center;fillColor=none;html=1;verticalAlign=middle;whiteSpace=wrap;rounded=0;" vertex="1" parent="1">
          <mxGeometry x="580" y="365" width="95" height="20" as="geometry" />
        </mxCell>
        <mxCell id="P1rr0KQyYY5fjy0DUGKN-47" value="" style="edgeStyle=orthogonalEdgeStyle;rounded=0;orthogonalLoop=1;jettySize=auto;html=1;" edge="1" parent="1" source="P1rr0KQyYY5fjy0DUGKN-42" target="P1rr0KQyYY5fjy0DUGKN-36">
          <mxGeometry relative="1" as="geometry">
            <Array as="points">
              <mxPoint x="430" y="70" />
              <mxPoint x="430" y="70" />
            </Array>
          </mxGeometry>
        </mxCell>
        <mxCell id="P1rr0KQyYY5fjy0DUGKN-42" value="" style="image;aspect=fixed;perimeter=ellipsePerimeter;html=1;align=center;shadow=0;dashed=0;spacingTop=3;image=img/lib/active_directory/internet_cloud.svg;" vertex="1" parent="1">
          <mxGeometry x="390.31" y="-10" width="79.37" height="50" as="geometry" />
        </mxCell>
        <mxCell id="P1rr0KQyYY5fjy0DUGKN-43" value="Internet" style="text;strokeColor=none;align=center;fillColor=none;html=1;verticalAlign=middle;whiteSpace=wrap;rounded=0;" vertex="1" parent="1">
          <mxGeometry x="455" y="50" width="60" height="30" as="geometry" />
        </mxCell>
        <mxCell id="P1rr0KQyYY5fjy0DUGKN-44" value="Elastic IP&#xa;Address" style="sketch=0;outlineConnect=0;fontColor=#232F3E;gradientColor=none;strokeColor=#232F3E;fillColor=#ffffff;dashed=0;verticalLabelPosition=bottom;verticalAlign=top;align=center;html=1;fontSize=12;fontStyle=0;aspect=fixed;shape=mxgraph.aws4.resourceIcon;resIcon=mxgraph.aws4.elastic_ip_address;rotation=0;" vertex="1" parent="1">
          <mxGeometry x="610" y="240" width="25" height="25" as="geometry" />
        </mxCell>
        <mxCell id="P1rr0KQyYY5fjy0DUGKN-45" value="Elastic IP&#xa;Address" style="sketch=0;outlineConnect=0;fontColor=#232F3E;gradientColor=none;strokeColor=#232F3E;fillColor=#ffffff;dashed=0;verticalLabelPosition=bottom;verticalAlign=top;align=center;html=1;fontSize=12;fontStyle=0;aspect=fixed;shape=mxgraph.aws4.resourceIcon;resIcon=mxgraph.aws4.elastic_ip_address;rotation=0;" vertex="1" parent="1">
          <mxGeometry x="240" y="250" width="25" height="25" as="geometry" />
        </mxCell>
        <mxCell id="P1rr0KQyYY5fjy0DUGKN-49" style="edgeStyle=orthogonalEdgeStyle;rounded=0;orthogonalLoop=1;jettySize=auto;html=1;entryX=0.5;entryY=0;entryDx=0;entryDy=0;entryPerimeter=0;" edge="1" parent="1" source="P1rr0KQyYY5fjy0DUGKN-36" target="P1rr0KQyYY5fjy0DUGKN-14">
          <mxGeometry relative="1" as="geometry" />
        </mxCell>
        <mxCell id="P1rr0KQyYY5fjy0DUGKN-55" value="10.0.0.0/16" style="text;strokeColor=none;align=center;fillColor=none;html=1;verticalAlign=middle;whiteSpace=wrap;rounded=0;" vertex="1" parent="1">
          <mxGeometry x="195" y="160" width="60" height="30" as="geometry" />
        </mxCell>
        <mxCell id="P1rr0KQyYY5fjy0DUGKN-57" value="" style="rounded=1;arcSize=10;dashed=1;strokeColor=#ff0000;fillColor=none;gradientColor=none;dashPattern=8 4;strokeWidth=2;" vertex="1" parent="1">
          <mxGeometry x="490" y="500" width="120" height="70" as="geometry" />
        </mxCell>
        <mxCell id="P1rr0KQyYY5fjy0DUGKN-77" value="" style="edgeStyle=orthogonalEdgeStyle;rounded=0;orthogonalLoop=1;jettySize=auto;html=1;" edge="1" parent="1" source="P1rr0KQyYY5fjy0DUGKN-58" target="P1rr0KQyYY5fjy0DUGKN-68">
          <mxGeometry relative="1" as="geometry" />
        </mxCell>
        <mxCell id="P1rr0KQyYY5fjy0DUGKN-58" value="" style="rounded=1;arcSize=10;dashed=1;strokeColor=#ff0000;fillColor=none;gradientColor=none;dashPattern=8 4;strokeWidth=2;" vertex="1" parent="1">
          <mxGeometry x="215" y="504.25" width="120" height="70" as="geometry" />
        </mxCell>
        <mxCell id="P1rr0KQyYY5fjy0DUGKN-59" value="" style="rounded=1;arcSize=10;dashed=1;strokeColor=#ff0000;fillColor=none;gradientColor=none;dashPattern=8 4;strokeWidth=2;" vertex="1" parent="1">
          <mxGeometry x="180" y="310" width="90" height="70" as="geometry" />
        </mxCell>
        <mxCell id="P1rr0KQyYY5fjy0DUGKN-60" value="" style="rounded=1;arcSize=10;dashed=1;strokeColor=#ff0000;fillColor=none;gradientColor=none;dashPattern=8 4;strokeWidth=2;" vertex="1" parent="1">
          <mxGeometry x="577.5" y="315" width="90" height="70" as="geometry" />
        </mxCell>
        <mxCell id="P1rr0KQyYY5fjy0DUGKN-62" value="&lt;b&gt;SG&lt;/b&gt;" style="text;strokeColor=none;align=center;fillColor=none;html=1;verticalAlign=middle;whiteSpace=wrap;rounded=0;" vertex="1" parent="1">
          <mxGeometry x="537.5" y="335" width="40" height="30" as="geometry" />
        </mxCell>
        <mxCell id="P1rr0KQyYY5fjy0DUGKN-63" value="&lt;b&gt;SG&lt;/b&gt;" style="text;strokeColor=none;align=center;fillColor=none;html=1;verticalAlign=middle;whiteSpace=wrap;rounded=0;" vertex="1" parent="1">
          <mxGeometry x="280" y="330" width="40" height="30" as="geometry" />
        </mxCell>
        <mxCell id="P1rr0KQyYY5fjy0DUGKN-65" value="&lt;b&gt;SG&lt;/b&gt;" style="text;strokeColor=none;align=center;fillColor=none;html=1;verticalAlign=middle;whiteSpace=wrap;rounded=0;" vertex="1" parent="1">
          <mxGeometry x="325" y="530" width="40" height="30" as="geometry" />
        </mxCell>
        <mxCell id="P1rr0KQyYY5fjy0DUGKN-66" value="&lt;b&gt;SG&lt;/b&gt;" style="text;strokeColor=none;align=center;fillColor=none;html=1;verticalAlign=middle;whiteSpace=wrap;rounded=0;" vertex="1" parent="1">
          <mxGeometry x="460" y="530" width="40" height="24.25" as="geometry" />
        </mxCell>
        <mxCell id="P1rr0KQyYY5fjy0DUGKN-73" value="AWS Account" style="points=[[0,0],[0.25,0],[0.5,0],[0.75,0],[1,0],[1,0.25],[1,0.5],[1,0.75],[1,1],[0.75,1],[0.5,1],[0.25,1],[0,1],[0,0.75],[0,0.5],[0,0.25]];outlineConnect=0;gradientColor=none;html=1;whiteSpace=wrap;fontSize=12;fontStyle=0;container=1;pointerEvents=0;collapsible=0;recursiveResize=0;shape=mxgraph.aws4.group;grIcon=mxgraph.aws4.group_account;strokeColor=#CD2264;fillColor=none;verticalAlign=top;align=left;spacingLeft=30;fontColor=#CD2264;dashed=0;" vertex="1" parent="1">
          <mxGeometry x="40" y="120" width="760" height="550" as="geometry" />
        </mxCell>
        <mxCell id="P1rr0KQyYY5fjy0DUGKN-54" value="" style="sketch=0;outlineConnect=0;fontColor=#232F3E;gradientColor=none;fillColor=#7AA116;strokeColor=none;dashed=0;verticalLabelPosition=bottom;verticalAlign=top;align=center;html=1;fontSize=12;fontStyle=0;aspect=fixed;pointerEvents=1;shape=mxgraph.aws4.bucket_with_objects;" vertex="1" parent="P1rr0KQyYY5fjy0DUGKN-73">
          <mxGeometry x="20" y="110" width="50.96" height="53" as="geometry" />
        </mxCell>
        <mxCell id="P1rr0KQyYY5fjy0DUGKN-72" value="Amazon SNS" style="sketch=0;outlineConnect=0;fontColor=#232F3E;gradientColor=none;strokeColor=#ffffff;fillColor=#232F3E;dashed=0;verticalLabelPosition=middle;verticalAlign=bottom;align=center;html=1;whiteSpace=wrap;fontSize=10;fontStyle=1;spacing=3;shape=mxgraph.aws4.productIcon;prIcon=mxgraph.aws4.sns;" vertex="1" parent="P1rr0KQyYY5fjy0DUGKN-73">
          <mxGeometry x="10.48" y="240" width="70" height="80" as="geometry" />
        </mxCell>
        <mxCell id="P1rr0KQyYY5fjy0DUGKN-75" value="" style="edgeStyle=orthogonalEdgeStyle;rounded=0;orthogonalLoop=1;jettySize=auto;html=1;" edge="1" parent="P1rr0KQyYY5fjy0DUGKN-73" source="P1rr0KQyYY5fjy0DUGKN-68" target="P1rr0KQyYY5fjy0DUGKN-72">
          <mxGeometry relative="1" as="geometry" />
        </mxCell>
        <mxCell id="P1rr0KQyYY5fjy0DUGKN-68" value="Instance with&#xa;CloudWatch" style="sketch=0;outlineConnect=0;fontColor=#232F3E;gradientColor=none;strokeColor=#232F3E;fillColor=#ffffff;dashed=0;verticalLabelPosition=bottom;verticalAlign=top;align=center;html=1;fontSize=12;fontStyle=0;aspect=fixed;shape=mxgraph.aws4.resourceIcon;resIcon=mxgraph.aws4.instance_with_cloudwatch;" vertex="1" parent="P1rr0KQyYY5fjy0DUGKN-73">
          <mxGeometry x="15.480000000000032" y="390" width="60" height="60" as="geometry" />
        </mxCell>
        <mxCell id="P1rr0KQyYY5fjy0DUGKN-78" value="" style="html=1;verticalLabelPosition=bottom;align=center;labelBackgroundColor=#ffffff;verticalAlign=top;strokeWidth=2;strokeColor=#0080F0;shadow=0;dashed=0;shape=mxgraph.ios7.icons.mail;" vertex="1" parent="P1rr0KQyYY5fjy0DUGKN-73">
          <mxGeometry y="220" width="30" height="16.5" as="geometry" />
        </mxCell>
      </root>
    </mxGraphModel>
  </diagram>
</mxfile>
